<svg class="merci" xmlns="http://www.w3.org/2000/svg" xmlns:xlink="http://www.w3.org/1999/xlink" viewBox="0 0 400 150">
	<path class="path" d="m21.639 48.2c9.25-7.75 24.647-13.314 37-31 21.629-30.967-22.39 73.3-39.09 109-2.262 4.836-13.271 16.07-11.666 10.977 11.666-37 21.19-67.796 42.872-88.977 18.813-18.381 34.2-10.793 34.2 25.383 0 28.592-17.521 68.2-12.177 55.78 12.99-30.2 28.28-89.43 64.851-85.08 29.22 3.474-29.01 76.35-13.437 86.988 24.282 11.324 98.28-57.07 68.07-60.898-22.31-2.826-64.01 59.06-30.04 66.808 20.677 4.713 49.21-9.494 61.15-21 16.322-15.732 29.862-34.724 40-55 4.334-8.667-25.863 10.114-22 19 4.286 9.858 30.08-6.576 32 4 3.924 19.901-38.829 46.42-21 53 6.456 2.381 35.09-7.784 42-22 11.366-23.394 47.717-51.821 48-28.682.144 11.742 6.485-27.492-31.532 4.502-8.453 7.113-25.959 26.438-17.468 37.18 14.05 17.77 55.41-6.443 71-24 5.252-6.292 13.799-25.07 10-19-17.708 28.28-29.951 67.29 17.898 35.815" fill="none" stroke="#14170f" stroke-linecap="round" stroke-width="5.5" stroke-miterlimit="2"/><path d="m380.79 66.04c-7.964 18.636 20.272-13.42-3.061-5.102" fill="none" stroke="#14170f" stroke-linecap="round" stroke-width="5.5" stroke-miterlimit="2"/>
</svg>